<mxfile host="app.diagrams.net" agent="Mozilla/5.0 (Windows NT 10.0; Win64; x64) AppleWebKit/537.36 (KHTML, like Gecko) Chrome/129.0.0.0 Safari/537.36 Edg/129.0.0.0" version="24.7.17">
  <diagram name="第 1 页" id="lz4oavgEQPAgRHy7e6l9">
    <mxGraphModel dx="837" dy="432" grid="0" gridSize="10" guides="1" tooltips="1" connect="1" arrows="1" fold="1" page="1" pageScale="1" pageWidth="827" pageHeight="1169" math="1" shadow="0">
      <root>
        <mxCell id="0" />
        <mxCell id="1" parent="0" />
        <mxCell id="84YTV3enfMSkaAA-lkL0-16" value="Assets" style="childLayout=tableLayout;recursiveResize=0;strokeColor=#98bf21;fillColor=#A7C942;shadow=1;" vertex="1" parent="1">
          <mxGeometry x="70" y="200" width="330" height="190" as="geometry" />
        </mxCell>
        <mxCell id="84YTV3enfMSkaAA-lkL0-17" style="shape=tableRow;horizontal=0;startSize=0;swimlaneHead=0;swimlaneBody=0;top=0;left=0;bottom=0;right=0;dropTarget=0;collapsible=0;recursiveResize=0;expand=0;fontStyle=0;strokeColor=inherit;fillColor=#ffffff;" vertex="1" parent="84YTV3enfMSkaAA-lkL0-16">
          <mxGeometry width="330" height="39" as="geometry" />
        </mxCell>
        <mxCell id="84YTV3enfMSkaAA-lkL0-18" value="&lt;font color=&quot;#1a1a1a&quot;&gt;$$lock_1$$&lt;/font&gt;" style="connectable=0;recursiveResize=0;strokeColor=inherit;fillColor=#A7C942;align=center;fontStyle=1;fontColor=#FFFFFF;html=1;" vertex="1" parent="84YTV3enfMSkaAA-lkL0-17">
          <mxGeometry width="110" height="39" as="geometry">
            <mxRectangle width="110" height="39" as="alternateBounds" />
          </mxGeometry>
        </mxCell>
        <mxCell id="84YTV3enfMSkaAA-lkL0-19" value="...." style="connectable=0;recursiveResize=0;strokeColor=inherit;fillColor=#A7C942;align=center;fontStyle=1;fontColor=#FFFFFF;html=1;" vertex="1" parent="84YTV3enfMSkaAA-lkL0-17">
          <mxGeometry x="110" width="110" height="39" as="geometry">
            <mxRectangle width="110" height="39" as="alternateBounds" />
          </mxGeometry>
        </mxCell>
        <mxCell id="84YTV3enfMSkaAA-lkL0-20" value="$$lock_n$$" style="connectable=0;recursiveResize=0;strokeColor=inherit;fillColor=#A7C942;align=center;fontStyle=1;fontColor=#FFFFFF;html=1;" vertex="1" parent="84YTV3enfMSkaAA-lkL0-17">
          <mxGeometry x="220" width="110" height="39" as="geometry">
            <mxRectangle width="110" height="39" as="alternateBounds" />
          </mxGeometry>
        </mxCell>
        <mxCell id="84YTV3enfMSkaAA-lkL0-21" value="" style="shape=tableRow;horizontal=0;startSize=0;swimlaneHead=0;swimlaneBody=0;top=0;left=0;bottom=0;right=0;dropTarget=0;collapsible=0;recursiveResize=0;expand=0;fontStyle=0;strokeColor=inherit;fillColor=#ffffff;" vertex="1" parent="84YTV3enfMSkaAA-lkL0-16">
          <mxGeometry y="39" width="330" height="38" as="geometry" />
        </mxCell>
        <mxCell id="84YTV3enfMSkaAA-lkL0-22" value="&lt;span style=&quot;color: rgb(26, 26, 26); font-weight: 700; text-wrap: nowrap;&quot;&gt;$$Thread_{11}$$&lt;/span&gt;" style="connectable=0;recursiveResize=0;strokeColor=inherit;fillColor=inherit;align=center;whiteSpace=wrap;html=1;" vertex="1" parent="84YTV3enfMSkaAA-lkL0-21">
          <mxGeometry width="110" height="38" as="geometry">
            <mxRectangle width="110" height="38" as="alternateBounds" />
          </mxGeometry>
        </mxCell>
        <mxCell id="84YTV3enfMSkaAA-lkL0-23" value="...." style="connectable=0;recursiveResize=0;strokeColor=inherit;fillColor=inherit;align=center;whiteSpace=wrap;html=1;" vertex="1" parent="84YTV3enfMSkaAA-lkL0-21">
          <mxGeometry x="110" width="110" height="38" as="geometry">
            <mxRectangle width="110" height="38" as="alternateBounds" />
          </mxGeometry>
        </mxCell>
        <mxCell id="84YTV3enfMSkaAA-lkL0-24" value="&lt;span style=&quot;color: rgb(26, 26, 26); font-weight: 700; text-wrap: nowrap;&quot;&gt;$$Thread_{n1}$$&lt;/span&gt;" style="connectable=0;recursiveResize=0;strokeColor=inherit;fillColor=inherit;align=center;whiteSpace=wrap;html=1;" vertex="1" parent="84YTV3enfMSkaAA-lkL0-21">
          <mxGeometry x="220" width="110" height="38" as="geometry">
            <mxRectangle width="110" height="38" as="alternateBounds" />
          </mxGeometry>
        </mxCell>
        <mxCell id="84YTV3enfMSkaAA-lkL0-25" value="" style="shape=tableRow;horizontal=0;startSize=0;swimlaneHead=0;swimlaneBody=0;top=0;left=0;bottom=0;right=0;dropTarget=0;collapsible=0;recursiveResize=0;expand=0;fontStyle=1;strokeColor=inherit;fillColor=#EAF2D3;" vertex="1" parent="84YTV3enfMSkaAA-lkL0-16">
          <mxGeometry y="77" width="330" height="37" as="geometry" />
        </mxCell>
        <mxCell id="84YTV3enfMSkaAA-lkL0-26" value="&lt;span style=&quot;color: rgb(26, 26, 26); font-weight: 700; text-wrap: nowrap;&quot;&gt;$$Thread_{12}$$&lt;/span&gt;" style="connectable=0;recursiveResize=0;strokeColor=inherit;fillColor=inherit;whiteSpace=wrap;html=1;" vertex="1" parent="84YTV3enfMSkaAA-lkL0-25">
          <mxGeometry width="110" height="37" as="geometry">
            <mxRectangle width="110" height="37" as="alternateBounds" />
          </mxGeometry>
        </mxCell>
        <mxCell id="84YTV3enfMSkaAA-lkL0-27" value="..." style="connectable=0;recursiveResize=0;strokeColor=inherit;fillColor=inherit;whiteSpace=wrap;html=1;" vertex="1" parent="84YTV3enfMSkaAA-lkL0-25">
          <mxGeometry x="110" width="110" height="37" as="geometry">
            <mxRectangle width="110" height="37" as="alternateBounds" />
          </mxGeometry>
        </mxCell>
        <mxCell id="84YTV3enfMSkaAA-lkL0-28" value="..." style="connectable=0;recursiveResize=0;strokeColor=inherit;fillColor=inherit;whiteSpace=wrap;html=1;" vertex="1" parent="84YTV3enfMSkaAA-lkL0-25">
          <mxGeometry x="220" width="110" height="37" as="geometry">
            <mxRectangle width="110" height="37" as="alternateBounds" />
          </mxGeometry>
        </mxCell>
        <mxCell id="84YTV3enfMSkaAA-lkL0-29" value="" style="shape=tableRow;horizontal=0;startSize=0;swimlaneHead=0;swimlaneBody=0;top=0;left=0;bottom=0;right=0;dropTarget=0;collapsible=0;recursiveResize=0;expand=0;fontStyle=0;strokeColor=inherit;fillColor=#ffffff;" vertex="1" parent="84YTV3enfMSkaAA-lkL0-16">
          <mxGeometry y="114" width="330" height="39" as="geometry" />
        </mxCell>
        <mxCell id="84YTV3enfMSkaAA-lkL0-30" value="..." style="connectable=0;recursiveResize=0;strokeColor=inherit;fillColor=inherit;fontStyle=0;align=center;whiteSpace=wrap;html=1;" vertex="1" parent="84YTV3enfMSkaAA-lkL0-29">
          <mxGeometry width="110" height="39" as="geometry">
            <mxRectangle width="110" height="39" as="alternateBounds" />
          </mxGeometry>
        </mxCell>
        <mxCell id="84YTV3enfMSkaAA-lkL0-31" value="..." style="connectable=0;recursiveResize=0;strokeColor=inherit;fillColor=inherit;fontStyle=0;align=center;whiteSpace=wrap;html=1;" vertex="1" parent="84YTV3enfMSkaAA-lkL0-29">
          <mxGeometry x="110" width="110" height="39" as="geometry">
            <mxRectangle width="110" height="39" as="alternateBounds" />
          </mxGeometry>
        </mxCell>
        <mxCell id="84YTV3enfMSkaAA-lkL0-32" value="&lt;span style=&quot;color: rgb(26, 26, 26); font-weight: 700; text-wrap: nowrap;&quot;&gt;...&lt;/span&gt;" style="connectable=0;recursiveResize=0;strokeColor=inherit;fillColor=inherit;fontStyle=0;align=center;whiteSpace=wrap;html=1;" vertex="1" parent="84YTV3enfMSkaAA-lkL0-29">
          <mxGeometry x="220" width="110" height="39" as="geometry">
            <mxRectangle width="110" height="39" as="alternateBounds" />
          </mxGeometry>
        </mxCell>
        <mxCell id="84YTV3enfMSkaAA-lkL0-33" value="" style="shape=tableRow;horizontal=0;startSize=0;swimlaneHead=0;swimlaneBody=0;top=0;left=0;bottom=0;right=0;dropTarget=0;collapsible=0;recursiveResize=0;expand=0;fontStyle=1;strokeColor=inherit;fillColor=#EAF2D3;" vertex="1" parent="84YTV3enfMSkaAA-lkL0-16">
          <mxGeometry y="153" width="330" height="37" as="geometry" />
        </mxCell>
        <mxCell id="84YTV3enfMSkaAA-lkL0-34" value="&lt;span style=&quot;color: rgb(26, 26, 26); font-weight: 700; text-wrap: nowrap;&quot;&gt;$$Thread_{1m}$$&lt;/span&gt;" style="connectable=0;recursiveResize=0;strokeColor=inherit;fillColor=inherit;whiteSpace=wrap;html=1;" vertex="1" parent="84YTV3enfMSkaAA-lkL0-33">
          <mxGeometry width="110" height="37" as="geometry">
            <mxRectangle width="110" height="37" as="alternateBounds" />
          </mxGeometry>
        </mxCell>
        <mxCell id="84YTV3enfMSkaAA-lkL0-35" value="..." style="connectable=0;recursiveResize=0;strokeColor=inherit;fillColor=inherit;whiteSpace=wrap;html=1;" vertex="1" parent="84YTV3enfMSkaAA-lkL0-33">
          <mxGeometry x="110" width="110" height="37" as="geometry">
            <mxRectangle width="110" height="37" as="alternateBounds" />
          </mxGeometry>
        </mxCell>
        <mxCell id="84YTV3enfMSkaAA-lkL0-36" value="&lt;span style=&quot;color: rgb(26, 26, 26); font-weight: 700; text-wrap: nowrap;&quot;&gt;$$Thread_{nm}$$&lt;/span&gt;" style="connectable=0;recursiveResize=0;strokeColor=inherit;fillColor=inherit;whiteSpace=wrap;html=1;" vertex="1" parent="84YTV3enfMSkaAA-lkL0-33">
          <mxGeometry x="220" width="110" height="37" as="geometry">
            <mxRectangle width="110" height="37" as="alternateBounds" />
          </mxGeometry>
        </mxCell>
        <mxCell id="84YTV3enfMSkaAA-lkL0-37" value="" style="shape=table;startSize=0;container=1;collapsible=0;childLayout=tableLayout;fontSize=16;" vertex="1" parent="1">
          <mxGeometry x="55" y="400" width="360" height="80" as="geometry" />
        </mxCell>
        <mxCell id="84YTV3enfMSkaAA-lkL0-50" style="shape=tableRow;horizontal=0;startSize=0;swimlaneHead=0;swimlaneBody=0;strokeColor=inherit;top=0;left=0;bottom=0;right=0;collapsible=0;dropTarget=0;fillColor=none;points=[[0,0.5],[1,0.5]];portConstraint=eastwest;fontSize=16;" vertex="1" parent="84YTV3enfMSkaAA-lkL0-37">
          <mxGeometry width="360" height="40" as="geometry" />
        </mxCell>
        <mxCell id="84YTV3enfMSkaAA-lkL0-51" value="&lt;font style=&quot;font-size: 13px;&quot;&gt;$$maxPrio_1$$&lt;/font&gt;" style="shape=partialRectangle;html=1;whiteSpace=wrap;connectable=0;strokeColor=inherit;overflow=hidden;fillColor=none;top=0;left=0;bottom=0;right=0;pointerEvents=1;fontSize=16;" vertex="1" parent="84YTV3enfMSkaAA-lkL0-50">
          <mxGeometry width="120" height="40" as="geometry">
            <mxRectangle width="120" height="40" as="alternateBounds" />
          </mxGeometry>
        </mxCell>
        <mxCell id="84YTV3enfMSkaAA-lkL0-52" value="&lt;span style=&quot;font-size: 13px;&quot;&gt;....&lt;/span&gt;" style="shape=partialRectangle;html=1;whiteSpace=wrap;connectable=0;strokeColor=inherit;overflow=hidden;fillColor=none;top=0;left=0;bottom=0;right=0;pointerEvents=1;fontSize=16;" vertex="1" parent="84YTV3enfMSkaAA-lkL0-50">
          <mxGeometry x="120" width="120" height="40" as="geometry">
            <mxRectangle width="120" height="40" as="alternateBounds" />
          </mxGeometry>
        </mxCell>
        <mxCell id="84YTV3enfMSkaAA-lkL0-53" value="&lt;span style=&quot;font-size: 13px;&quot;&gt;$$maxPrio_n$$&lt;/span&gt;" style="shape=partialRectangle;html=1;whiteSpace=wrap;connectable=0;strokeColor=inherit;overflow=hidden;fillColor=none;top=0;left=0;bottom=0;right=0;pointerEvents=1;fontSize=16;" vertex="1" parent="84YTV3enfMSkaAA-lkL0-50">
          <mxGeometry x="240" width="120" height="40" as="geometry">
            <mxRectangle width="120" height="40" as="alternateBounds" />
          </mxGeometry>
        </mxCell>
        <mxCell id="84YTV3enfMSkaAA-lkL0-42" value="" style="shape=tableRow;horizontal=0;startSize=0;swimlaneHead=0;swimlaneBody=0;strokeColor=inherit;top=0;left=0;bottom=0;right=0;collapsible=0;dropTarget=0;fillColor=none;points=[[0,0.5],[1,0.5]];portConstraint=eastwest;fontSize=16;" vertex="1" parent="84YTV3enfMSkaAA-lkL0-37">
          <mxGeometry y="40" width="360" height="40" as="geometry" />
        </mxCell>
        <mxCell id="84YTV3enfMSkaAA-lkL0-43" value="&lt;font style=&quot;font-size: 10px;&quot;&gt;$$maxPrio(Thread_{11-1m})$$&lt;/font&gt;" style="shape=partialRectangle;html=1;whiteSpace=wrap;connectable=0;strokeColor=inherit;overflow=hidden;fillColor=none;top=0;left=0;bottom=0;right=0;pointerEvents=1;fontSize=16;" vertex="1" parent="84YTV3enfMSkaAA-lkL0-42">
          <mxGeometry width="120" height="40" as="geometry">
            <mxRectangle width="120" height="40" as="alternateBounds" />
          </mxGeometry>
        </mxCell>
        <mxCell id="84YTV3enfMSkaAA-lkL0-44" value="&lt;span style=&quot;font-size: 10px;&quot;&gt;$$maxPrio(Thread_{...})$$&lt;/span&gt;" style="shape=partialRectangle;html=1;whiteSpace=wrap;connectable=0;strokeColor=inherit;overflow=hidden;fillColor=none;top=0;left=0;bottom=0;right=0;pointerEvents=1;fontSize=16;" vertex="1" parent="84YTV3enfMSkaAA-lkL0-42">
          <mxGeometry x="120" width="120" height="40" as="geometry">
            <mxRectangle width="120" height="40" as="alternateBounds" />
          </mxGeometry>
        </mxCell>
        <mxCell id="84YTV3enfMSkaAA-lkL0-45" value="&lt;span style=&quot;font-size: 10px;&quot;&gt;$$maxPrio(Thread_{n1-nm})$$&lt;/span&gt;" style="shape=partialRectangle;html=1;whiteSpace=wrap;connectable=0;strokeColor=inherit;overflow=hidden;fillColor=none;top=0;left=0;bottom=0;right=0;pointerEvents=1;fontSize=16;" vertex="1" parent="84YTV3enfMSkaAA-lkL0-42">
          <mxGeometry x="240" width="120" height="40" as="geometry">
            <mxRectangle width="120" height="40" as="alternateBounds" />
          </mxGeometry>
        </mxCell>
      </root>
    </mxGraphModel>
  </diagram>
</mxfile>
